<svg id="Layer_1" data-name="Layer 1" xmlns="http://www.w3.org/2000/svg" viewBox="0 0 104 117.58">
  <g>
    <g>
      <path d="M43.57,6.25V64.63H53.69V45.51H70.28a6.07,6.07,0,0,0,0-12.14H53.69V12.26H72.1a6.07,6.07,0,0,0,6.07-6.07V6.07A6.07,6.07,0,0,0,72.1,0H41.29A9.69,9.69,0,0,1,43.57,6.25Z" style="fill: #fb5607"/>
      <path d="M73.86,69.53H63.43a9.7,9.7,0,0,1-.19,12.26H73.86a6.13,6.13,0,0,0,0-12.26Z" style="fill: #fb5607"/>
    </g>
    <g>
      <path d="M9,91.9l-.82,4.41a.43.43,0,0,0,.43.51h3.52a.44.44,0,0,1,.43.53L12,100.23a.44.44,0,0,1-.43.35H7.77a.43.43,0,0,0-.43.35l-1.55,7.86a17.61,17.61,0,0,0-.34,2.87,1.59,1.59,0,0,0,1.8,1.8c.39,0,.78,0,1.14,0a.44.44,0,0,1,.46.49l-.36,3a.43.43,0,0,1-.33.37,12,12,0,0,1-2.87.33c-3.34,0-4.84-1.83-4.84-4.17a16.91,16.91,0,0,1,.46-3.79l1.65-8.52a.44.44,0,0,0-.43-.52H.44a.44.44,0,0,1-.43-.52l.54-2.88A.44.44,0,0,1,1,96.82H3a.43.43,0,0,0,.43-.35l.71-3.75a.44.44,0,0,1,.33-.34l4-1A.43.43,0,0,1,9,91.9Z" style="fill: #3a86ff"/>
      <path d="M28.34,115.65a.45.45,0,0,1-.24.45,16.57,16.57,0,0,1-6.89,1.44c-5.63,0-8.34-3.42-8.34-8.38,0-6.12,4.5-12.79,11.51-12.79,4,0,6.54,2.33,6.54,5.71,0,5.11-5.26,6.81-12.87,6.71a.44.44,0,0,0-.45.43,5.54,5.54,0,0,0,.57,2.44,4.47,4.47,0,0,0,4.16,2.09,12.07,12.07,0,0,0,5.06-1.08A.43.43,0,0,1,28,113ZM23.75,100c-2.81,0-4.73,2.31-5.47,4.6a.45.45,0,0,0,.42.58c4.67,0,7.64-.73,7.64-3C26.34,100.78,25.29,100,23.75,100Z" style="fill: #3a86ff"/>
      <path d="M46.21,117.12a.42.42,0,0,1-.43-.45c.06-1.15.21-2.59.35-4.13H46c-2,3.75-4.67,5-7.26,5-3.62,0-6-2.83-6-6.92,0-6.92,4.84-14.29,14.3-14.29a21.86,21.86,0,0,1,5.75.8.43.43,0,0,1,.3.5l-2,10.2a48.76,48.76,0,0,0-.84,8.81.43.43,0,0,1-.44.44Zm1.46-16.37a.44.44,0,0,0-.35-.52,9.47,9.47,0,0,0-1.56-.11c-4.5,0-8,5-8,9.67,0,2.12.79,3.87,2.91,3.87s5-2.83,6-8Z" style="fill: #3a86ff"/>
      <path d="M55.57,117.12a.43.43,0,0,1-.43-.51l2.49-13.49c.43-2.25.75-4.24,1-5.92a.42.42,0,0,1,.43-.38h3.33a.44.44,0,0,1,.44.49l-.36,3.06h0a8.56,8.56,0,0,1,7-4c2.68,0,4.14,1.43,4.63,3.19a.43.43,0,0,0,.76.14,8.32,8.32,0,0,1,6.58-3.33c2.79,0,5,1.79,5,5.41a26.9,26.9,0,0,1-.34,3.46l-2.18,11.53a.44.44,0,0,1-.43.35H79.67a.43.43,0,0,1-.43-.51l2-10.82a19,19,0,0,0,.29-2.59c0-1.71-.71-2.87-2.5-2.87-2.21,0-4.67,2.79-5.46,7.08l-1.77,9.36a.44.44,0,0,1-.43.35H67.62a.43.43,0,0,1-.43-.51l2.07-11a11.9,11.9,0,0,0,.25-2.38c0-1.54-.46-2.91-2.42-2.91-2.25,0-4.83,3-5.58,7.17l-1.69,9.27a.42.42,0,0,1-.43.35Z" style="fill: #3a86ff"/>
      <path d="M89.6,113.05a.43.43,0,0,1,.6-.24A10.91,10.91,0,0,0,94.64,114c2,0,3.13-1.17,3.13-2.51s-.67-2.08-2.67-3.12c-2.33-1.21-4-3-4-5.29,0-3.92,3.42-6.67,8.21-6.67a11,11,0,0,1,4.45.85.45.45,0,0,1,.22.55l-1,2.68a.44.44,0,0,1-.59.25,8.29,8.29,0,0,0-3.37-.71c-1.83,0-3.08,1-3.08,2.38,0,1.12.91,1.92,2.62,2.79,2.21,1.21,4.21,2.88,4.21,5.46,0,4.46-3.75,6.92-8.63,6.92a11,11,0,0,1-5.38-1.27.42.42,0,0,1-.17-.51Z" style="fill: #3a86ff"/>
    </g>
    <path d="M31.53,0H29.1a6.25,6.25,0,0,0-6.25,6.25V75.54a6.25,6.25,0,0,0,6.25,6.25H53.48a6.25,6.25,0,1,0,0-12.5H37.78v-63A6.25,6.25,0,0,0,31.53,0Z" style="fill: #3a86ff"/>
  </g>
</svg>
