<?xml version="1.0" encoding="utf-8"?>
<!-- Generator: Adobe Illustrator 25.0.0, SVG Export Plug-In . SVG Version: 6.00 Build 0)  -->
<svg version="1.1" id="Layer_1" xmlns="http://www.w3.org/2000/svg" xmlns:xlink="http://www.w3.org/1999/xlink" x="0px" y="0px"
	 viewBox="0 0 100 100" style="enable-background:new 0 0 100 100;" xml:space="preserve">
<g>
	<path d="M42.1,41.9l0.5,1.8c1,3.7,4.7,5.9,8.4,4.9l7.3-1.9c3.6-0.9,5.8-4.8,4.9-8.4l-0.5-1.9l2.4,1.2l34.9-9.2L94.3,6.8l-34.9,9.2
		l-1.5,2.2l-0.4-1.7c-0.5-1.8-1.6-3.3-3.2-4.2c-1.6-0.9-3.4-1.2-5.2-0.7l-7.3,1.9c-1.8,0.5-3.3,1.6-4.2,3.2
		c-0.9,1.6-1.2,3.4-0.7,5.2l0.4,1.7l-2.4-1.2L0,31.5l5.7,21.7l34.9-9.2L42.1,41.9z M62.2,19.9L91,12.4l3.4,12.9l-28.8,7.6l-2.4-1.2
		l-2.5-9.4L62.2,19.9z M37.8,40.1L9,47.7L5.6,34.8l28.8-7.6l2.4,1.2l2.5,9.4L37.8,40.1z"/>
	<path d="M59.2,64.9c6.2-1.6,10.8-6.3,12.5-12.4l-4.4-1.2c-1.2,4.5-4.7,8-9.2,9.2h0c-4.6,1.2-9.2-0.1-12.5-3.5l-3.3,3.2
		C46.7,64.8,53,66.5,59.2,64.9C59.2,64.9,59.2,64.9,59.2,64.9z"/>
	<path d="M36.1,71.3c7,7.2,17,9.9,26.7,7.4c9.7-2.5,17-9.8,19.6-19.5L78,58c-2.2,8.1-8.3,14.2-16.4,16.3c-8.1,2.1-16.4-0.2-22.2-6.1
		L36.1,71.3z"/>
	<path d="M65.1,87.6c-11.1,2.9-22.6-0.2-30.6-8.5l-3.3,3.2c9.2,9.4,22.3,13,35.1,9.7C79,88.7,88.7,79.1,92.1,66.3l-4.4-1.2
		C84.7,76.3,76.2,84.7,65.1,87.6z"/>
</g>
</svg>
