<?xml version="1.0" encoding="utf-8"?>
<!-- Generator: Adobe Illustrator 25.0.0, SVG Export Plug-In . SVG Version: 6.00 Build 0)  -->
<svg version="1.1" id="Layer_1" xmlns="http://www.w3.org/2000/svg" xmlns:xlink="http://www.w3.org/1999/xlink" x="0px" y="0px"
	 viewBox="0 0 100 100" style="enable-background:new 0 0 100 100;" xml:space="preserve">
<g>
	<path d="M42.1,61.9l0.5,1.8c1,3.7,4.7,5.9,8.4,4.9l7.3-1.9c3.6-0.9,5.8-4.8,4.9-8.4l-0.5-1.9l2.4,1.2l34.9-9.2l-5.7-21.7l-34.9,9.2
		l-1.5,2.2l-0.4-1.7c-0.5-1.8-1.6-3.3-3.2-4.2c-1.6-0.9-3.4-1.2-5.2-0.7l-7.3,1.9c-1.8,0.5-3.3,1.6-4.2,3.2
		c-0.9,1.6-1.2,3.4-0.7,5.2l0.4,1.7l-2.4-1.2L0,51.5l5.7,21.7l34.9-9.2L42.1,61.9z M62.2,39.9L91,32.3l3.4,12.9l-28.8,7.6l-2.4-1.2
		l-2.5-9.4L62.2,39.9z M37.8,60.1L9,67.7L5.6,54.8l28.8-7.6l2.4,1.2l2.5,9.4L37.8,60.1z"/>
</g>
</svg>
