<?xml version="1.0" encoding="utf-8"?>
<!-- Generator: Adobe Illustrator 25.0.0, SVG Export Plug-In . SVG Version: 6.00 Build 0)  -->
<svg version="1.1" id="Layer_1" xmlns="http://www.w3.org/2000/svg" xmlns:xlink="http://www.w3.org/1999/xlink" x="0px" y="0px"
	 viewBox="0 0 32 32" style="enable-background:new 0 0 32 32;" xml:space="preserve">
<g>
	<g>
		<path d="M16,16c-4.3,0-7.9-3.5-7.9-7.9s3.5-7.9,7.9-7.9c4.3,0,7.9,3.5,7.9,7.9S20.3,16,16,16z M16,1.4c-3.7,0-6.7,3-6.7,6.7
			s3,6.7,6.7,6.7s6.7-3,6.7-6.7S19.7,1.4,16,1.4z"/>
	</g>
	<g>
		<path d="M30.1,31.7H1.9c-0.3,0-0.6-0.3-0.6-0.6c0-7.2,6.4-12.9,14.6-12.9c3.5,0,6.7,1,9.3,2.9c0.3,0.2,0.3,0.5,0.1,0.8
			c-0.2,0.3-0.5,0.3-0.8,0.1c-2.4-1.7-5.4-2.7-8.7-2.7c-7.3,0-13.2,4.9-13.5,11.2h27c-0.1-1.7-0.5-3.3-1.4-4.8
			c-0.2-0.3-0.1-0.6,0.2-0.8c0.3-0.1,0.6-0.1,0.8,0.2c1,1.8,1.5,3.8,1.5,5.9C30.6,31.5,30.4,31.7,30.1,31.7z"/>
	</g>
	<g>
		<path d="M16,13.2c-0.9,0-1.7-0.4-2.4-1c-0.2-0.2-0.2-0.6,0-0.8s0.6-0.2,0.8,0c0.9,0.9,2.3,0.9,3.2,0c0.2-0.2,0.6-0.2,0.8,0
			c0.2,0.2,0.2,0.6,0,0.8C17.7,12.8,16.9,13.2,16,13.2z"/>
	</g>
</g>
</svg>
