<?xml version="1.0" encoding="utf-8"?>
<!-- Generator: Adobe Illustrator 25.0.0, SVG Export Plug-In . SVG Version: 6.00 Build 0)  -->
<svg version="1.1" id="Layer_1" xmlns="http://www.w3.org/2000/svg" xmlns:xlink="http://www.w3.org/1999/xlink" x="0px" y="0px"
	 viewBox="0 0 32 32" style="enable-background:new 0 0 32 32;" xml:space="preserve">
<g>
	<path d="M29.5,2H29V0.5C29,0.2,28.8,0,28.5,0h-3C25.2,0,25,0.2,25,0.5V2H7V0.5C7,0.2,6.8,0,6.5,0h-3C3.2,0,3,0.2,3,0.5V2H2.5
		C1.1,2,0,3.1,0,4.5v4v19C0,28.9,1.1,30,2.5,30h27c1.4,0,2.5-1.1,2.5-2.5v-19v-4C32,3.1,30.9,2,29.5,2z M26,1h2v4h-2V1z M4,1h2v4H4
		V1z M1,4.5C1,3.7,1.7,3,2.5,3H3v2.5C3,5.8,3.2,6,3.5,6h3C6.8,6,7,5.8,7,5.5V3h18v2.5C25,5.8,25.2,6,25.5,6h3C28.8,6,29,5.8,29,5.5
		V3h0.5C30.3,3,31,3.7,31,4.5V8H1V4.5z M31,27.5c0,0.8-0.7,1.5-1.5,1.5h-27C1.7,29,1,28.3,1,27.5V9h30V27.5z"/>
	<path d="M21.8,22.2l-0.4,2.2c0,0.2,0,0.4,0.2,0.5c0.1,0.1,0.2,0.1,0.3,0.1c0.1,0,0.2,0,0.2-0.1l2-1.1l2,1.1c0.2,0.1,0.4,0.1,0.5,0
		c0.2-0.1,0.2-0.3,0.2-0.5l-0.4-2.3l1.5-1.6C28,20.4,28,20.2,28,20c-0.1-0.2-0.2-0.3-0.4-0.3l-2.1-0.4l-1-2.1
		c-0.2-0.3-0.7-0.3-0.9,0l-1,2.1l-2.1,0.4c-0.2,0-0.3,0.2-0.4,0.3c-0.1,0.2,0,0.4,0.1,0.5L21.8,22.2z M23,20.3
		c0.2,0,0.3-0.1,0.4-0.3l0.6-1.4l0.6,1.4c0.1,0.1,0.2,0.3,0.4,0.3l1.5,0.2l-1.1,1.1c-0.1,0.1-0.2,0.3-0.1,0.4l0.2,1.5l-1.3-0.7
		c-0.1,0-0.2-0.1-0.2-0.1s-0.2,0-0.2,0.1l-1.3,0.7l0.3-1.5c0-0.2,0-0.3-0.1-0.5l-1.1-1.1L23,20.3z"/>
	<path d="M5.5,16h4c0.3,0,0.5-0.2,0.5-0.5v-4c0-0.3-0.2-0.5-0.5-0.5h-4C5.2,11,5,11.2,5,11.5v4C5,15.8,5.2,16,5.5,16z M6,12h3v3H6
		V12z"/>
	<path d="M13.5,16h4c0.3,0,0.5-0.2,0.5-0.5v-4c0-0.3-0.2-0.5-0.5-0.5h-4c-0.3,0-0.5,0.2-0.5,0.5v4C13,15.8,13.2,16,13.5,16z M14,12
		h3v3h-3V12z"/>
	<path d="M21.5,16h4c0.3,0,0.5-0.2,0.5-0.5v-4c0-0.3-0.2-0.5-0.5-0.5h-4c-0.3,0-0.5,0.2-0.5,0.5v4C21,15.8,21.2,16,21.5,16z M22,12
		h3v3h-3V12z"/>
	<path d="M5.5,23h4c0.3,0,0.5-0.2,0.5-0.5v-4c0-0.3-0.2-0.5-0.5-0.5h-4C5.2,18,5,18.2,5,18.5v4C5,22.8,5.2,23,5.5,23z M6,19h3v3H6
		V19z"/>
	<path d="M13.5,23h4c0.3,0,0.5-0.2,0.5-0.5v-4c0-0.3-0.2-0.5-0.5-0.5h-4c-0.3,0-0.5,0.2-0.5,0.5v4C13,22.8,13.2,23,13.5,23z M14,19
		h3v3h-3V19z"/>
	<path d="M5.5,28h20c0.3,0,0.5-0.2,0.5-0.5S25.8,27,25.5,27h-20C5.2,27,5,27.2,5,27.5S5.2,28,5.5,28z"/>
</g>
</svg>
