<?xml version="1.0" encoding="utf-8"?>
<!-- Generator: Adobe Illustrator 25.0.0, SVG Export Plug-In . SVG Version: 6.00 Build 0)  -->
<svg version="1.1" id="Layer_1" xmlns="http://www.w3.org/2000/svg" xmlns:xlink="http://www.w3.org/1999/xlink" x="0px" y="0px"
	 viewBox="0 0 32 32" style="enable-background:new 0 0 32 32;" xml:space="preserve">
<g>
	<polygon points="16,0 0,16 1.4,16 16,1.4 30.6,16 32,16 	"/>
	<polygon points="16,3.6 15.3,4.3 3.6,16 5,16 16,5 27,16 28.4,16 16.7,4.3 	"/>
	<polygon points="24,3 25,3 25,8 26,9 26,2 23,2 23,6 24,7 	"/>
	<polygon points="26,31 20,31 20,22 20,21 12,21 12,22 12,31 6,31 6,16 5,16 5,32 12,32 13,32 13,31 13,22 19,22 19,31 19,32 20,32 
		27,32 27,16 26,16 	"/>
</g>
</svg>
