<?xml version="1.0" encoding="utf-8"?>
<!-- Generator: Adobe Illustrator 25.0.0, SVG Export Plug-In . SVG Version: 6.00 Build 0)  -->
<svg version="1.1" id="Layer_1" xmlns="http://www.w3.org/2000/svg" xmlns:xlink="http://www.w3.org/1999/xlink" x="0px" y="0px"
	 viewBox="0 0 30 30" style="enable-background:new 0 0 30 30;" xml:space="preserve">
<g>
	<path d="M25.5,3H21V2.5C21,2.2,20.8,2,20.5,2H19V0.5C19,0.2,18.8,0,18.5,0h-7C11.2,0,11,0.2,11,0.5V2H9.5C9.2,2,9,2.2,9,2.5V3H4.5
		C4.2,3,4,3.2,4,3.5v26C4,29.8,4.2,30,4.5,30h21c0.3,0,0.5-0.2,0.5-0.5v-26C26,3.2,25.8,3,25.5,3z M9.5,7h11C20.8,7,21,6.8,21,6.5V6
		h2v21H7V6h2v0.5C9,6.8,9.2,7,9.5,7z M10,3h1.5C11.8,3,12,2.8,12,2.5V1h6v1.5C18,2.8,18.2,3,18.5,3H20v3H10V3z M25,29H5V4h4v1H6.5
		C6.2,5,6,5.2,6,5.5v22C6,27.8,6.2,28,6.5,28h17c0.3,0,0.5-0.2,0.5-0.5v-22C24,5.2,23.8,5,23.5,5H21V4h4V29z"/>
	<path d="M13.1,14.9c0.1,0.1,0.2,0.1,0.4,0.1s0.3,0,0.4-0.1l5-5c0.2-0.2,0.2-0.5,0-0.7s-0.5-0.2-0.7,0l-4.6,4.6l-1.6-1.6
		c-0.2-0.2-0.5-0.2-0.7,0s-0.2,0.5,0,0.7L13.1,14.9z"/>
	<path d="M13.1,19.9c0.1,0.1,0.2,0.1,0.4,0.1s0.3,0,0.4-0.1l5-5c0.2-0.2,0.2-0.5,0-0.7s-0.5-0.2-0.7,0l-4.6,4.6l-1.6-1.6
		c-0.2-0.2-0.5-0.2-0.7,0s-0.2,0.5,0,0.7L13.1,19.9z"/>
	<path d="M13.1,24.9c0.1,0.1,0.2,0.1,0.4,0.1s0.3,0,0.4-0.1l5-5c0.2-0.2,0.2-0.5,0-0.7s-0.5-0.2-0.7,0l-4.6,4.6l-1.6-1.6
		c-0.2-0.2-0.5-0.2-0.7,0s-0.2,0.5,0,0.7L13.1,24.9z"/>
</g>
</svg>
