<?xml version="1.0" encoding="utf-8"?>
<!-- Generator: Adobe Illustrator 25.0.0, SVG Export Plug-In . SVG Version: 6.00 Build 0)  -->
<svg version="1.1" id="Layer_1" xmlns="http://www.w3.org/2000/svg" xmlns:xlink="http://www.w3.org/1999/xlink" x="0px" y="0px"
	 viewBox="0 0 32 32" style="enable-background:new 0 0 32 32;" xml:space="preserve">
<g>
	<path d="M30,8.5c0-0.2-0.1-0.3-0.2-0.4L28,7c0-0.2,0-0.3,0-0.5C28,2.9,25.1,0,21.5,0S15,2.9,15,6.5c0,0.4,0.1,0.8,0.2,1.2L9.3,4.1
		c0,0,0,0,0,0C9.2,4,9.1,4,9,4c0,0,0,0,0,0c0,0,0,0,0,0C8.9,4,8.8,4,8.8,4.1c0,0,0,0,0,0L3.6,7.2c-0.1,0-0.2,0.1-0.3,0.1
		c0,0,0,0.1-0.1,0.1L2.2,8.1C2.1,8.2,2,8.3,2,8.5l-0.1,1.6c-0.1,0.1-0.1,0.3,0,0.4L0,31.5c0,0.2,0.1,0.4,0.2,0.5
		c0.2,0.1,0.3,0.1,0.5,0L8,28.1l7.3,3.9c0,0,0,0,0,0c0.1,0,0.1,0.1,0.2,0.1c0.1,0,0.1,0,0.2,0c0,0,0,0,0,0l8-3.8c0,0,0,0,0,0
		c0.1,0,0.2,0,0.3-0.1l7.2,3.9c0.2,0.1,0.4,0.1,0.5,0c0.2-0.1,0.2-0.3,0.2-0.5L30,8.5z M21.5,1c3,0,5.5,2.5,5.5,5.5
		c0,0.2,0,0.3,0,0.5c0,0.1,0,0.1,0,0.2c-0.4,1.9-2.2,4.8-3.8,7.2c-0.1,0.1-0.2,0.2-0.2,0.3c-0.5,0.8-1,1.4-1.4,2
		c-1.5-2-4.1-5.8-5.1-8.5c0,0,0-0.1,0-0.1c0,0,0,0,0,0C16.1,7.5,16,6.9,16,6.5C16,3.5,18.5,1,21.5,1z M21,28.3l-5-5v-2.6l6.8,6.8
		L21,28.3z M8.5,27.2l0.4-9.6l4.9,4.9l-4.9,4.9L8.5,27.2z M8.2,11.5L4.5,7.8l3.9-2.4L8.2,11.5z M9.5,5.4L15,8.8v0.5l-4.5,4.5
		l-1.3-1.3L9.5,5.4z M15,18.3l-3.8-3.8l3.8-3.8V18.3z M15,19.7v2.6l-6-6l0.1-2.5L15,19.7z M14.5,23.2l0.5,0.5v7l-5.2-2.8L14.5,23.2z
		 M16,24.7l4.1,4.1L16,30.7V24.7z M23.5,26.8L16,19.3V9.8c1.7,3.6,4.9,7.7,5.1,8c0.1,0.1,0.2,0.2,0.4,0.2s0.3-0.1,0.4-0.2
		c0.1-0.1,0.5-0.6,1.1-1.4L23.5,26.8z M3.7,8.4l4.5,4.5L8,15.3l-5.2-5.2L3,8.8L3.7,8.4z M2.7,11.5L8,16.7L7.5,27.2l-6.4,3.4
		L2.7,11.5z M24.5,27.2L23.9,15c1.4-2.1,3.2-4.9,3.8-7L29,8.8l1.9,21.8L24.5,27.2z"/>
	<path d="M21.5,10c1.9,0,3.5-1.6,3.5-3.5S23.4,3,21.5,3S18,4.6,18,6.5S19.6,10,21.5,10z M21.5,4C22.9,4,24,5.1,24,6.5S22.9,9,21.5,9
		S19,7.9,19,6.5S20.1,4,21.5,4z"/>
</g>
</svg>
