<?xml version="1.0" encoding="utf-8"?>
<!-- Generator: Adobe Illustrator 25.0.0, SVG Export Plug-In . SVG Version: 6.00 Build 0)  -->
<svg version="1.1" id="Layer_1" xmlns="http://www.w3.org/2000/svg" xmlns:xlink="http://www.w3.org/1999/xlink" x="0px" y="0px"
	 viewBox="0 0 30 30" style="enable-background:new 0 0 30 30;" xml:space="preserve">
<g>
	<path d="M4.5,2C4.2,2,4,2.2,4,2.5S4.2,3,4.5,3h13C17.8,3,18,2.8,18,2.5S17.8,2,17.5,2H4.5z"/>
	<path d="M8.5,6C8.2,6,8,6.2,8,6.5S8.2,7,8.5,7h13C21.8,7,22,6.8,22,6.5S21.8,6,21.5,6H8.5z"/>
	<path d="M27.5,12h-15c-0.8,0-1.5-0.7-1.5-1.5S11.7,9,12.5,9h15C27.8,9,28,8.8,28,8.5S27.8,8,27.5,8h-15h-4C7.7,8,7,7.3,7,6.5
		S7.7,5,8.5,5h14C22.8,5,23,4.8,23,4.5S22.8,4,22.5,4h-14h-4C3.7,4,3,3.3,3,2.5S3.7,1,4.5,1h14C18.8,1,19,0.8,19,0.5S18.8,0,18.5,0
		h-14C3.1,0,2,1.1,2,2.5v14.6h1V4.5C3.4,4.8,3.9,5,4.5,5h2C6.2,5.4,6,5.9,6,6.5v10.6h0.2c0.3,0,0.6-0.1,0.8-0.4V8.5
		C7.4,8.8,7.9,9,8.5,9h2C10.2,9.4,10,9.9,10,10.5v0.8c0.3,0.1,0.6,0.3,0.8,0.7l0.2,0.7v-0.2c0.4,0.3,0.9,0.5,1.5,0.5H27v16H12.5
		c-0.8,0-1.5-0.7-1.5-1.5v-1.1L10.4,26c-0.1-0.1-0.2-0.1-0.4-0.2v1.7c0,1.4,1.1,2.5,2.5,2.5h15c0.3,0,0.5-0.2,0.5-0.5v-17
		C28,12.2,27.8,12,27.5,12z"/>
	<path d="M12.5,10c-0.3,0-0.5,0.2-0.5,0.5s0.2,0.5,0.5,0.5h14c0.3,0,0.5-0.2,0.5-0.5S26.8,10,26.5,10H12.5z"/>
</g>
<g>
	<path d="M5.1,27.9l-0.4-0.2c-0.2-0.1-0.3-0.4-0.2-0.6l1.7-5.1l-4.6-3.4l0.1-0.4c0.1-0.2,0.3-0.4,0.5-0.4h5.4l1.8-5.5l0.4,0
		c0.2,0,0.5,0.2,0.5,0.4l1.7,5.1h5.7l0.2,0.4c0.1,0.2,0,0.5-0.2,0.6l-4.3,3.2l1.8,5.5l-0.3,0.3c-0.2,0.1-0.5,0.1-0.7,0l-4.3-3.2
		L5.1,27.9z M9.7,23.3l0.4,0.2l3.5,2.5l-1.5-4.5l0.3-0.3l3.5-2.6h-4.7l-0.2-0.4l-1.3-4.1l-1.5,4.5l-0.4,0H3.5l3.8,2.8l-0.1,0.4
		l-1.3,4.1L9.7,23.3z"/>
</g>
</svg>
