<?xml version="1.0" encoding="utf-8"?>
<!-- Generator: Adobe Illustrator 25.0.0, SVG Export Plug-In . SVG Version: 6.00 Build 0)  -->
<svg version="1.1" id="Layer_1" xmlns="http://www.w3.org/2000/svg" xmlns:xlink="http://www.w3.org/1999/xlink" x="0px" y="0px"
	 viewBox="0 0 32 32" style="enable-background:new 0 0 32 32;" xml:space="preserve">
<g>
	<path d="M20,19c0,0.3,0.2,0.5,0.5,0.5S21,19.3,21,19c0-1.7-1.3-3-3-3v-0.5c0-0.3-0.2-0.5-0.5-0.5S17,15.2,17,15.5V16h-1v-0.5
		c0-0.3-0.2-0.5-0.5-0.5S15,15.2,15,15.5V16c-1.7,0-3,1.3-3,3s1.3,3,3,3v4c-1.1,0-2-0.9-2-2c0-0.3-0.2-0.5-0.5-0.5S12,23.7,12,24
		c0,1.7,1.3,3,3,3v0.5c0,0.3,0.2,0.5,0.5,0.5s0.5-0.2,0.5-0.5V27h1v0.5c0,0.3,0.2,0.5,0.5,0.5s0.5-0.2,0.5-0.5V27c1.7,0,3-1.3,3-3
		s-1.3-3-3-3v-4C19.1,17,20,17.9,20,19z M13,19c0-1.1,0.9-2,2-2v4C13.9,21,13,20.1,13,19z M16,26v-4h1v4H16z M20,24c0,1.1-0.9,2-2,2
		v-4C19.1,22,20,22.9,20,24z M17,21h-1v-4h1V21z"/>
	<path d="M22.3,11.8c-1.3-1-2.5-1.9-3-3C19.7,8.5,20,8,20,7.5c0-0.5-0.2-0.9-0.6-1.2L21,0.6c0-0.2,0-0.4-0.1-0.5
		C20.7,0,20.6,0,20.4,0L16,1l-4.4-1c-0.2,0-0.4,0-0.5,0.1C11,0.3,11,0.5,11,0.6l1.6,5.6C12.2,6.6,12,7,12,7.5c0,0.5,0.3,1,0.7,1.3
		c-0.5,1.1-1.7,2-3,3C6.9,13.9,3,16.8,3,24.5c0,3.5,1.2,5.6,3.7,6.6C8.9,32,12,32,15.5,32h1c0.2,0,0.3,0,0.5,0c3.3,0,6.2,0,8.3-0.9
		c2.5-1,3.7-3.1,3.7-6.6C29,16.8,25.1,13.9,22.3,11.8z M13.5,8C13.2,8,13,7.8,13,7.5S13.2,7,13.5,7H15h0h2h0h1.5
		C18.8,7,19,7.2,19,7.5S18.8,8,18.5,8H13.5z M15.9,2C16,2,16,2,16.1,2l3.7-0.8L18.4,6h-0.9c0.1-1,0.3-2.3,0.8-2.6
		c0.2-0.2,0.3-0.5,0.1-0.7c-0.2-0.2-0.5-0.3-0.7-0.1c-0.9,0.6-1.1,2.5-1.2,3.4h-1c-0.1-0.9-0.3-2.8-1.2-3.4
		c-0.2-0.2-0.5-0.1-0.7,0.1c-0.2,0.2-0.1,0.5,0.1,0.7C14.1,3.7,14.4,5,14.5,6h-0.9l-1.4-4.8L15.9,2z M24.9,30.2
		c-2,0.8-5,0.8-8.4,0.8h-1c-3.4,0-6.4,0-8.4-0.8C5,29.3,4,27.5,4,24.5c0-7.2,3.5-9.8,6.3-11.9c1.5-1.1,2.8-2.1,3.4-3.6h0.7
		c-0.1,0.7-0.4,1.7-0.8,2.1c-0.2,0.2-0.2,0.5,0,0.7C13.7,12,13.9,12,14,12s0.3,0,0.4-0.1c0.7-0.7,1-2.1,1.1-2.9h1.1
		c0.1,0.7,0.4,2.1,1.1,2.9C17.7,12,17.9,12,18,12s0.3,0,0.4-0.1c0.2-0.2,0.2-0.5,0-0.7c-0.4-0.4-0.7-1.4-0.8-2.1h0.7
		c0.6,1.5,1.9,2.5,3.4,3.6c2.8,2.1,6.3,4.7,6.3,11.9C28,27.5,27,29.3,24.9,30.2z"/>
</g>
</svg>
