<?xml version="1.0" encoding="utf-8"?>
<!-- Generator: Adobe Illustrator 25.0.0, SVG Export Plug-In . SVG Version: 6.00 Build 0)  -->
<svg version="1.1" id="Layer_1" xmlns="http://www.w3.org/2000/svg" xmlns:xlink="http://www.w3.org/1999/xlink" x="0px" y="0px"
	 viewBox="0 0 85 85" style="enable-background:new 0 0 85 85;" xml:space="preserve">
<g>
	<path d="M38.7,15.7l-1.2,5.9c-0.2,0.9,0.4,1.8,1.3,2c0.1,0,0.2,0,0.3,0c0.8,0,1.5-0.6,1.7-1.4l1.2-5.9c1.8,0,3.4-0.7,4.8-1.9
		c1.5-1.3,2.4-3.1,2.5-5.1c0.2-4.1-2.9-7.7-7-7.9h0c-4.1-0.2-7.7,2.9-7.9,7c-0.1,2,0.5,3.9,1.9,5.4C36.9,14.7,37.8,15.3,38.7,15.7z
		 M41.8,4.9c0.1,0,0.2,0,0.2,0C44.3,5,46,7,45.9,9.2c-0.1,1.1-0.6,2.1-1.4,2.8c-0.8,0.7-1.9,1.1-2.9,1c-1.1-0.1-2.1-0.5-2.8-1.4
		c-0.7-0.8-1.1-1.9-1-2.9C37.9,6.5,39.7,4.9,41.8,4.9z"/>
	<path d="M64.1,35.5H20.9c-0.9,0-1.7,0.8-1.7,1.7c0,0.9,0.8,1.7,1.7,1.7h43.1c0.9,0,1.7-0.8,1.7-1.7C65.8,36.3,65,35.5,64.1,35.5z"
		/>
	<path d="M64.1,47.5H20.9c-0.9,0-1.7,0.8-1.7,1.7c0,0.9,0.8,1.7,1.7,1.7h43.1c0.9,0,1.7-0.8,1.7-1.7C65.8,48.3,65,47.5,64.1,47.5z"
		/>
	<path d="M77.3,10.8H54.1v3.4h21.5v53l-15,13h0V65.5h9.3v-3.4H57.2v18H9.4v-66h20.2v-3.4H7.7c-0.9,0-1.7,0.8-1.7,1.7v69.4
		c0,0.9,0.8,1.7,1.7,1.7h53.6c0.4,0,0.8-0.1,1.1-0.4l16-13.9c0.4-0.3,0.6-0.8,0.6-1.3V12.5C79,11.5,78.2,10.8,77.3,10.8z"/>
</g>
</svg>
