<?xml version="1.0" ?><svg viewBox="0 0 64 64" xmlns="http://www.w3.org/2000/svg"><title/><g id="outline"><path d="M53.71,43.29a1,1,0,0,0-1.36,0l-1.62,1.4-5.35-6.53A2,2,0,0,1,44.93,37l-.78-11.74a18,18,0,0,0-1-4.75L37.45,4.12a3.17,3.17,0,0,0-5.37-1L32,3.19l-.08-.11a3.17,3.17,0,0,0-5.37,1.05L20.82,20.49a18,18,0,0,0-1,4.75L19.07,37a2,2,0,0,1-.45,1.13l-5.35,6.54-1.62-1.4a1,1,0,0,0-1.36,0l-8,8A1,1,0,0,0,2,52v9a1,1,0,0,0,1,1H22a1,1,0,0,0,.71-.29l4-4a1,1,0,0,0-.05-1.46l-1.81-1.57,6.22-7.87A8.94,8.94,0,0,0,32,45.33a8.94,8.94,0,0,0,.94,1.47l6.22,7.87-1.81,1.57a1,1,0,0,0-.05,1.46l4,4A1,1,0,0,0,42,62H61a1,1,0,0,0,1-1V52a1,1,0,0,0-.29-.71ZM32,18.12a3.6,3.6,0,0,0-.8-.62l.8-6.43.8,6.43A3.6,3.6,0,0,0,32,18.12ZM21.59,60H4V52.41l7-7L24.53,57.05Zm7.91-14.44-6.16,7.8L14.78,46l5.38-6.58a4,4,0,0,0,.89-2.27l.78-11.74a16,16,0,0,1,.86-4.22L28.43,4.78A1.17,1.17,0,0,1,29.54,4,1.17,1.17,0,0,1,30.7,5.31L29.24,17a3.61,3.61,0,0,0-3.42,3.3L25,30.92a1,1,0,1,0,2,.15l.82-10.6A1.6,1.6,0,0,1,31,20.6V41.22A7,7,0,0,1,29.49,45.56ZM60,60H42.41l-2.95-2.95,6.19-5.36a1,1,0,0,0-1.31-1.51l-3.67,3.19-6.16-7.8A7,7,0,0,1,33,41.22V20.6a1.6,1.6,0,0,1,3.19-.12L37,31.08a1,1,0,1,0,2-.15l-.82-10.6A3.61,3.61,0,0,0,34.76,17L33.3,5.31A1.17,1.17,0,0,1,34.46,4a1.17,1.17,0,0,1,1.1.78l5.73,16.37a16,16,0,0,1,.86,4.22l.78,11.74a4,4,0,0,0,.89,2.27L49.22,46l-1.49,1.29A1,1,0,0,0,49,48.76L53,45.37l7,7Z"/></g></svg>