<?xml version="1.0" encoding="utf-8"?>
<!-- Generator: Adobe Illustrator 25.0.0, SVG Export Plug-In . SVG Version: 6.00 Build 0)  -->
<svg version="1.1" id="Layer_1" xmlns="http://www.w3.org/2000/svg" xmlns:xlink="http://www.w3.org/1999/xlink" x="0px" y="0px"
	 viewBox="0 0 32 32" style="enable-background:new 0 0 32 32;" xml:space="preserve">
<g>
	<path d="M16,16c3.9,0,7-3.1,7-7s-3.1-7-7-7S9,5.1,9,9S12.1,16,16,16z M16,3c3.3,0,6,2.7,6,6s-2.7,6-6,6s-6-2.7-6-6S12.7,3,16,3z"/>
	<path d="M27.6,24.3c-0.1-0.2-0.4-0.3-0.7-0.2c-0.2,0.1-0.3,0.4-0.2,0.7c0.7,1.3,1.2,2.7,1.2,4.3H4c0.3-5.6,5.5-10,12-10
		c2.9,0,5.5,0.8,7.7,2.4c0.2,0.2,0.5,0.1,0.7-0.1s0.1-0.5-0.1-0.7C21.9,18.9,19.1,18,16,18C8.7,18,3,23.1,3,29.5
		C3,29.8,3.2,30,3.5,30h25c0.3,0,0.5-0.2,0.5-0.5C29,27.6,28.5,25.9,27.6,24.3z"/>
	<path d="M16,13.5c0.8,0,1.6-0.3,2.1-0.9c0.2-0.2,0.2-0.5,0-0.7s-0.5-0.2-0.7,0c-0.8,0.8-2.1,0.8-2.8,0c-0.2-0.2-0.5-0.2-0.7,0
		s-0.2,0.5,0,0.7C14.4,13.2,15.2,13.5,16,13.5z"/>
</g>
</svg>
