<?xml version="1.0" encoding="utf-8"?>
<!-- Generator: Adobe Illustrator 25.0.0, SVG Export Plug-In . SVG Version: 6.00 Build 0)  -->
<svg version="1.1" id="Layer_1" xmlns="http://www.w3.org/2000/svg" xmlns:xlink="http://www.w3.org/1999/xlink" x="0px" y="0px"
	 viewBox="0 0 320 320" style="enable-background:new 0 0 320 320;" xml:space="preserve">
<g>
	<path d="M299.4,131.5H268c-2.6-10.2-6.7-19.9-11.9-28.8l22.2-22.2c3.6-3.6,3.6-9.5,0-13.1L252,41.1c-1.8-1.8-4.2-2.7-6.6-2.7
		c-2.4,0-4.8,0.9-6.6,2.7l-22.2,22.2c-8.9-5.2-18.5-9.3-28.8-11.9V20c0-5.1-4.2-9.3-9.3-9.3h-37.2c-5.1,0-9.3,4.2-9.3,9.3v31.4
		c-10.2,2.6-19.9,6.7-28.8,11.9l-22-22.2c-1.8-1.8-4.2-2.7-6.6-2.7s-4.8,0.9-6.6,2.7L41.7,67.4c-3.6,3.6-3.6,9.5,0,13.1L64,102.7
		c-5.2,8.9-9.3,18.5-11.9,28.8H20.6c-5.1,0-9.3,4.2-9.3,9.3v18.6h9.3v-18.6H52h7.2l1.8-7c2.4-9.2,6.1-18.1,10.9-26.4l3.7-6.2
		l-5.1-5.1L48.3,73.9l26.3-26.3l22.2,22.2l5.1,5.1l6.2-3.7c8.3-4.9,17.1-8.6,26.4-10.9l7-1.8v-7.2V20h37.2v31.4v7.2l7,1.8
		c9.2,2.4,18.1,6.1,26.4,10.9l6.2,3.7l5.1-5.1l22.2-22.2L271.9,74l-22.2,22.2l-5.1,5.1l3.7,6.2c4.9,8.3,8.6,17.1,10.9,26.4l1.8,7
		h7.2h31.4v18.6h9.3v-18.6C308.7,135.6,304.5,131.5,299.4,131.5z"/>
	<path d="M160,103.6c30.7,0,55.7,25,55.7,55.7h9.3c0-35.9-29.1-65-65-65s-65,29.1-65,65h9.3C104.3,128.6,129.3,103.6,160,103.6z"/>
	<path d="M299.4,224.4H104.3c0-5.1-4.2-9.3-9.3-9.3H67.1c-5.1,0-9.3,4.2-9.3,9.3H20.6c-5.1,0-9.3,4.2-9.3,9.3v9.3
		c0,5.1,4.2,9.3,9.3,9.3h37.2c0,5.1,4.2,9.3,9.3,9.3H95c5.1,0,9.3-4.2,9.3-9.3h195.1c5.1,0,9.3-4.2,9.3-9.3v-9.3
		C308.7,228.6,304.5,224.4,299.4,224.4z M57.8,243H20.6v-9.3h37.2C57.8,233.7,57.8,243,57.8,243z M95,252.3H67.1v-27.9H95V252.3z
		 M299.4,243H104.3v-9.3h195.1L299.4,243L299.4,243z"/>
	<path d="M299.4,280.1h-46.5c0-5.1-4.2-9.3-9.3-9.3h-27.9c-5.1,0-9.3,4.2-9.3,9.3H20.6c-5.1,0-9.3,4.2-9.3,9.3v9.3
		c0,5.1,4.2,9.3,9.3,9.3h185.8c0,5.1,4.2,9.3,9.3,9.3h27.9c5.1,0,9.3-4.2,9.3-9.3h46.5c5.1,0,9.3-4.2,9.3-9.3v-9.3
		C308.7,284.3,304.5,280.1,299.4,280.1z M206.5,298.7H20.6v-9.3h185.8L206.5,298.7L206.5,298.7z M243.6,308h-27.9v-27.9h27.9V308z
		 M299.4,298.7h-46.5v-9.3h46.5V298.7z"/>
	<path d="M299.4,168.6H197.2c0-5.1-4.2-9.3-9.3-9.3H160c-5.1,0-9.3,4.2-9.3,9.3H20.6c-5.1,0-9.3,4.2-9.3,9.3v9.3
		c0,5.1,4.2,9.3,9.3,9.3h130.1c0,5.1,4.2,9.3,9.3,9.3h27.9c5.1,0,9.3-4.2,9.3-9.3h102.2c5.1,0,9.3-4.2,9.3-9.3v-9.3
		C308.7,172.8,304.5,168.6,299.4,168.6z M150.7,187.2H20.6v-9.3h130.1L150.7,187.2L150.7,187.2z M187.9,196.5H160v-27.9h27.9V196.5z
		 M299.4,187.2H197.2v-9.3h102.2V187.2z"/>
</g>
</svg>
