<?xml version="1.0" encoding="utf-8"?>
<!-- Generator: Adobe Illustrator 25.0.0, SVG Export Plug-In . SVG Version: 6.00 Build 0)  -->
<svg version="1.1" id="Layer_1" xmlns="http://www.w3.org/2000/svg" xmlns:xlink="http://www.w3.org/1999/xlink" x="0px" y="0px"
	 viewBox="0 0 32 32" style="enable-background:new 0 0 32 32;" xml:space="preserve">
<g>
	<path d="M31.5,28H4V0.5C4,0.2,3.8,0,3.5,0h-3C0.2,0,0,0.2,0,0.5v31C0,31.8,0.2,32,0.5,32h31c0.3,0,0.5-0.2,0.5-0.5v-3
		C32,28.2,31.8,28,31.5,28z M31,31H1V1h2v1H2.5C2.2,2,2,2.2,2,2.5S2.2,3,2.5,3H3v2H2.5C2.2,5,2,5.2,2,5.5S2.2,6,2.5,6H3v2H2.5
		C2.2,8,2,8.2,2,8.5S2.2,9,2.5,9H3v2H2.5C2.2,11,2,11.2,2,11.5S2.2,12,2.5,12H3v2H2.5C2.2,14,2,14.2,2,14.5S2.2,15,2.5,15H3v2H2.5
		C2.2,17,2,17.2,2,17.5S2.2,18,2.5,18H3v2H2.5C2.2,20,2,20.2,2,20.5S2.2,21,2.5,21H3v2H2.5C2.2,23,2,23.2,2,23.5S2.2,24,2.5,24H3v2
		H2.5C2.2,26,2,26.2,2,26.5S2.2,27,2.5,27H3v1.5C3,28.8,3.2,29,3.5,29H5v0.5C5,29.8,5.2,30,5.5,30S6,29.8,6,29.5V29h2v0.5
		C8,29.8,8.2,30,8.5,30S9,29.8,9,29.5V29h2v0.5c0,0.3,0.2,0.5,0.5,0.5s0.5-0.2,0.5-0.5V29h2v0.5c0,0.3,0.2,0.5,0.5,0.5
		s0.5-0.2,0.5-0.5V29h2v0.5c0,0.3,0.2,0.5,0.5,0.5s0.5-0.2,0.5-0.5V29h2v0.5c0,0.3,0.2,0.5,0.5,0.5s0.5-0.2,0.5-0.5V29h2v0.5
		c0,0.3,0.2,0.5,0.5,0.5s0.5-0.2,0.5-0.5V29h2v0.5c0,0.3,0.2,0.5,0.5,0.5s0.5-0.2,0.5-0.5V29h2v0.5c0,0.3,0.2,0.5,0.5,0.5
		s0.5-0.2,0.5-0.5V29h1V31z"/>
	<path d="M5.5,27C5.8,27,6,26.8,6,26.5v-1C6,25.2,5.8,25,5.5,25S5,25.2,5,25.5v1C5,26.8,5.2,27,5.5,27z"/>
	<path d="M11,26.5c0,0.3,0.2,0.5,0.5,0.5s0.5-0.2,0.5-0.5v-1c0-0.3-0.2-0.5-0.5-0.5S11,25.2,11,25.5V26.5z"/>
	<path d="M11,23.5c0,0.3,0.2,0.5,0.5,0.5s0.5-0.2,0.5-0.5v-1c0-0.3-0.2-0.5-0.5-0.5S11,22.2,11,22.5V23.5z"/>
	<path d="M11.5,21c0.3,0,0.5-0.2,0.5-0.5v-1c0-0.3-0.2-0.5-0.5-0.5S11,19.2,11,19.5v1C11,20.8,11.2,21,11.5,21z"/>
	<path d="M17,26.5c0,0.3,0.2,0.5,0.5,0.5s0.5-0.2,0.5-0.5v-1c0-0.3-0.2-0.5-0.5-0.5S17,25.2,17,25.5V26.5z"/>
	<path d="M17,23.5c0,0.3,0.2,0.5,0.5,0.5s0.5-0.2,0.5-0.5v-1c0-0.3-0.2-0.5-0.5-0.5S17,22.2,17,22.5V23.5z"/>
	<path d="M17,20.5c0,0.3,0.2,0.5,0.5,0.5s0.5-0.2,0.5-0.5v-1c0-0.3-0.2-0.5-0.5-0.5S17,19.2,17,19.5V20.5z"/>
	<path d="M32,0.3c-0.1-0.1-0.1-0.2-0.3-0.3c-0.1,0-0.1,0-0.2,0h-2C29.2,0,29,0.2,29,0.5S29.2,1,29.5,1h0.8l-6,6l-5.8,1
		c-0.2,0-0.3,0.1-0.4,0.3l-3.7,9.3l-2.5-2.5c-0.2-0.2-0.5-0.2-0.7,0l-6,6c-0.2,0.2-0.2,0.5,0,0.7C5.2,22,5.4,22,5.5,22
		s0.3,0,0.4-0.1l5.6-5.6l2.6,2.6c0.1,0.1,0.3,0.2,0.5,0.1c0.2,0,0.3-0.1,0.4-0.3l3.9-9.7l5.7-1c0.1,0,0.2-0.1,0.3-0.1L31,1.7v0.8
		C31,2.8,31.2,3,31.5,3S32,2.8,32,2.5v-2C32,0.4,32,0.4,32,0.3z"/>
	<path d="M17.5,18c0.3,0,0.5-0.2,0.5-0.5v-1c0-0.3-0.2-0.5-0.5-0.5S17,16.2,17,16.5v1C17,17.8,17.2,18,17.5,18z"/>
	<path d="M23,26.5c0,0.3,0.2,0.5,0.5,0.5s0.5-0.2,0.5-0.5v-1c0-0.3-0.2-0.5-0.5-0.5S23,25.2,23,25.5V26.5z"/>
	<path d="M23,23.5c0,0.3,0.2,0.5,0.5,0.5s0.5-0.2,0.5-0.5v-1c0-0.3-0.2-0.5-0.5-0.5S23,22.2,23,22.5V23.5z"/>
	<path d="M23,20.5c0,0.3,0.2,0.5,0.5,0.5s0.5-0.2,0.5-0.5v-1c0-0.3-0.2-0.5-0.5-0.5S23,19.2,23,19.5V20.5z"/>
	<path d="M23,17.5c0,0.3,0.2,0.5,0.5,0.5s0.5-0.2,0.5-0.5v-1c0-0.3-0.2-0.5-0.5-0.5S23,16.2,23,16.5V17.5z"/>
	<path d="M23,14.5c0,0.3,0.2,0.5,0.5,0.5s0.5-0.2,0.5-0.5v-1c0-0.3-0.2-0.5-0.5-0.5S23,13.2,23,13.5V14.5z"/>
	<path d="M23.5,12c0.3,0,0.5-0.2,0.5-0.5v-1c0-0.3-0.2-0.5-0.5-0.5S23,10.2,23,10.5v1C23,11.8,23.2,12,23.5,12z"/>
	<path d="M29,26.5c0,0.3,0.2,0.5,0.5,0.5s0.5-0.2,0.5-0.5v-1c0-0.3-0.2-0.5-0.5-0.5S29,25.2,29,25.5V26.5z"/>
	<path d="M29,23.5c0,0.3,0.2,0.5,0.5,0.5s0.5-0.2,0.5-0.5v-1c0-0.3-0.2-0.5-0.5-0.5S29,22.2,29,22.5V23.5z"/>
	<path d="M29,20.5c0,0.3,0.2,0.5,0.5,0.5s0.5-0.2,0.5-0.5v-1c0-0.3-0.2-0.5-0.5-0.5S29,19.2,29,19.5V20.5z"/>
	<path d="M29,17.5c0,0.3,0.2,0.5,0.5,0.5s0.5-0.2,0.5-0.5v-1c0-0.3-0.2-0.5-0.5-0.5S29,16.2,29,16.5V17.5z"/>
	<path d="M29,14.5c0,0.3,0.2,0.5,0.5,0.5s0.5-0.2,0.5-0.5v-1c0-0.3-0.2-0.5-0.5-0.5S29,13.2,29,13.5V14.5z"/>
	<path d="M29,11.5c0,0.3,0.2,0.5,0.5,0.5s0.5-0.2,0.5-0.5v-1c0-0.3-0.2-0.5-0.5-0.5S29,10.2,29,10.5V11.5z"/>
	<path d="M29.5,9C29.8,9,30,8.8,30,8.5v-1C30,7.2,29.8,7,29.5,7S29,7.2,29,7.5v1C29,8.8,29.2,9,29.5,9z"/>
</g>
</svg>
