<?xml version="1.0" encoding="utf-8"?>
<!-- Generator: Adobe Illustrator 25.0.0, SVG Export Plug-In . SVG Version: 6.00 Build 0)  -->
<svg version="1.1" id="Layer_1" xmlns="http://www.w3.org/2000/svg" xmlns:xlink="http://www.w3.org/1999/xlink" x="0px" y="0px"
	 viewBox="0 0 32 32" style="enable-background:new 0 0 32 32;" xml:space="preserve">
<g>
	<path d="M28.7,10.5l3.2-6.9c0.1-0.2,0.1-0.3,0-0.5C31.8,3,31.6,3,31.4,3H4.7v0c0-1.2-1-2.1-2.1-2.1s-2.1,1-2.1,2.1v26.2
		c0,1.2,1,2.1,2.1,2.1s2.1-1,2.1-2.1V18.1h26.7c0.2,0,0.3-0.1,0.4-0.2s0.1-0.3,0-0.5L28.7,10.5z M3.7,29.1c0,0.6-0.5,1.1-1.1,1.1
		s-1.1-0.5-1.1-1.1V2.9c0-0.6,0.5-1.1,1.1-1.1s1.1,0.5,1.1,1.1v0.5v14.2V29.1z M4.7,17.1V4h25.9l-2.9,6.4c-0.1,0.1-0.1,0.3,0,0.4
		l2.9,6.4H4.7z"/>
	<path d="M10.7,7.3H6.4c-0.3,0-0.5,0.2-0.5,0.5c0,0.3,0.2,0.5,0.5,0.5H8v4.9c0,0.3,0.2,0.5,0.5,0.5c0.3,0,0.5-0.2,0.5-0.5V8.3h1.7
		c0.3,0,0.5-0.2,0.5-0.5C11.2,7.5,11,7.3,10.7,7.3z"/>
	<path d="M15.1,8.3c0.3,0,0.5-0.2,0.5-0.5c0-0.3-0.2-0.5-0.5-0.5h-2.2c-0.3,0-0.5,0.2-0.5,0.5v5.5c0,0.3,0.2,0.5,0.5,0.5h2.2
		c0.3,0,0.5-0.2,0.5-0.5c0-0.3-0.2-0.5-0.5-0.5h-1.7v-1.7H14c0.3,0,0.5-0.2,0.5-0.5c0-0.3-0.2-0.5-0.5-0.5h-0.6V8.3H15.1z"/>
	<path d="M20.4,11.1L20.4,11.1c0-0.1,0-0.2-0.1-0.3l-0.9-3.2c-0.1-0.2-0.3-0.4-0.5-0.4s-0.4,0.1-0.5,0.4l-1.6,5.5
		c-0.1,0.3,0.1,0.6,0.3,0.6c0,0,0.1,0,0.1,0c0.2,0,0.4-0.1,0.5-0.4l0.5-1.8h1.2l0.5,1.8c0.1,0.3,0.4,0.4,0.6,0.3
		c0.3-0.1,0.4-0.4,0.3-0.6L20.4,11.1z M18.6,10.6l0.3-1l0.3,1H18.6z"/>
	<path d="M26.1,7.3c-0.2-0.1-0.5,0-0.6,0.2l-1.2,2l-1.2-2c-0.1-0.2-0.3-0.3-0.6-0.2c-0.2,0.1-0.4,0.3-0.4,0.5v5.5
		c0,0.3,0.2,0.5,0.5,0.5c0.3,0,0.5-0.2,0.5-0.5V9.7l0.7,1.1c0.2,0.3,0.7,0.3,0.9,0l0.7-1.1v3.6c0,0.3,0.2,0.5,0.5,0.5
		s0.5-0.2,0.5-0.5V7.8C26.5,7.6,26.3,7.4,26.1,7.3z"/>
</g>
</svg>
