<?xml version="1.0" encoding="utf-8"?>
<!-- Generator: Adobe Illustrator 25.0.0, SVG Export Plug-In . SVG Version: 6.00 Build 0)  -->
<svg version="1.1" id="Layer_1" xmlns="http://www.w3.org/2000/svg" xmlns:xlink="http://www.w3.org/1999/xlink" x="0px" y="0px"
	 viewBox="0 0 32 32" style="enable-background:new 0 0 32 32;" xml:space="preserve">
<g>
	<path d="M16,9c2.2,0,4-1.8,4-4s-1.8-4-4-4c-2.2,0-4,1.8-4,4S13.8,9,16,9z M16,2c1.7,0,3,1.3,3,3s-1.3,3-3,3s-3-1.3-3-3S14.3,2,16,2
		z"/>
	<path d="M9,20c1.7,0,3-1.3,3-3s-1.3-3-3-3s-3,1.3-3,3S7.3,20,9,20z M9,15c1.1,0,2,0.9,2,2c0,1.1-0.9,2-2,2s-2-0.9-2-2
		C7,15.9,7.9,15,9,15z"/>
	<path d="M20,17c0,1.7,1.3,3,3,3s3-1.3,3-3s-1.3-3-3-3S20,15.3,20,17z M25,17c0,1.1-0.9,2-2,2s-2-0.9-2-2c0-1.1,0.9-2,2-2
		S25,15.9,25,17z"/>
	<path d="M2,27.5c-1.1,0-2,0.9-2,2s0.9,2,2,2s2-0.9,2-2S3.1,27.5,2,27.5z M2,30.5c-0.6,0-1-0.4-1-1s0.4-1,1-1s1,0.4,1,1
		S2.6,30.5,2,30.5z"/>
	<path d="M30,27.5c-1.1,0-2,0.9-2,2s0.9,2,2,2s2-0.9,2-2S31.1,27.5,30,27.5z M30,30.5c-0.6,0-1-0.4-1-1s0.4-1,1-1s1,0.4,1,1
		S30.6,30.5,30,30.5z"/>
	<path d="M16,27.5c-1.1,0-2,0.9-2,2s0.9,2,2,2c1.1,0,2-0.9,2-2S17.1,27.5,16,27.5z M16,30.5c-0.6,0-1-0.4-1-1s0.4-1,1-1s1,0.4,1,1
		S16.6,30.5,16,30.5z"/>
	<path d="M9,13.5c0.1,0,0.3-0.1,0.4-0.2l1.8-1.8H16h4.9l1.8,1.8c0.1,0.1,0.2,0.2,0.4,0.2c0.1,0,0.2,0,0.3-0.1c0.2-0.2,0.2-0.5,0-0.7
		l-1.9-2c-0.1-0.1-0.2-0.2-0.4-0.2h-4.6V10c0-0.3-0.2-0.5-0.5-0.5s-0.5,0.2-0.5,0.5v0.5h-4.6c-0.1,0-0.3,0.1-0.4,0.2l-1.9,2
		c-0.2,0.2-0.2,0.5,0,0.7C8.8,13.5,8.9,13.5,9,13.5z"/>
	<path d="M15,26.5c0.1,0,0.2,0,0.3-0.1c0.2-0.2,0.3-0.5,0.1-0.7l-1.6-2c-0.1-0.1-0.2-0.2-0.4-0.2H9.5V21c0-0.3-0.2-0.5-0.5-0.5
		S8.5,20.7,8.5,21v2.5H4.6c-0.2,0-0.3,0.1-0.4,0.2l-1.6,2c-0.2,0.2-0.1,0.5,0.1,0.7c0.1,0.1,0.2,0.1,0.3,0.1c0.1,0,0.3-0.1,0.4-0.2
		l1.4-1.8H9h4.2l1.4,1.8C14.7,26.4,14.9,26.5,15,26.5z"/>
	<path d="M29,26.5c0.1,0,0.2,0,0.3-0.1c0.2-0.2,0.3-0.5,0.1-0.7l-1.5-2c-0.1-0.1-0.2-0.2-0.4-0.2h-4V21c0-0.3-0.2-0.5-0.5-0.5
		s-0.5,0.2-0.5,0.5v2.5h-4c-0.2,0-0.3,0.1-0.4,0.2l-1.5,2c-0.2,0.2-0.1,0.5,0.1,0.7c0.1,0.1,0.2,0.1,0.3,0.1c0.2,0,0.3-0.1,0.4-0.2
		l1.3-1.8H23h4.3l1.3,1.8C28.7,26.4,28.8,26.5,29,26.5z"/>
</g>
</svg>
