<?xml version="1.0" encoding="utf-8"?>
<!-- Generator: Adobe Illustrator 25.0.0, SVG Export Plug-In . SVG Version: 6.00 Build 0)  -->
<svg version="1.1" id="Layer_1" xmlns="http://www.w3.org/2000/svg" xmlns:xlink="http://www.w3.org/1999/xlink" x="0px" y="0px"
	 viewBox="0 0 30 30" style="enable-background:new 0 0 30 30;" xml:space="preserve">
<path d="M15,14c2.8,0,5-2.2,5-5s-2.2-5-5-5s-5,2.2-5,5S12.2,14,15,14z M15,5c2.2,0,4,1.8,4,4s-1.8,4-4,4s-4-1.8-4-4S12.8,5,15,5z"/>
<path d="M19.5,22c-0.3,0-0.5,0.2-0.5,0.5v3c0,0.3,0.2,0.5,0.5,0.5s0.5-0.2,0.5-0.5v-3C20,22.2,19.8,22,19.5,22z"/>
<path d="M10.5,22c-0.3,0-0.5,0.2-0.5,0.5v3c0,0.3,0.2,0.5,0.5,0.5s0.5-0.2,0.5-0.5v-3C11,22.2,10.8,22,10.5,22z"/>
<path d="M24.5,14c1.9,0,3.5-1.6,3.5-3.5S26.4,7,24.5,7S21,8.6,21,10.5S22.6,14,24.5,14z M24.5,8c1.4,0,2.5,1.1,2.5,2.5
	S25.9,13,24.5,13S22,11.9,22,10.5S23.1,8,24.5,8z"/>
<path d="M24.5,15c-1.7,0-3.3,0.8-4.3,2.1c-2.9-2.8-7.5-2.8-10.4,0c-1.9-2.4-5.3-2.8-7.7-0.9c-1.3,1-2.1,2.6-2.1,4.3v2
	C0,22.8,0.2,23,0.5,23S1,22.8,1,22.5v-2C1,18,3,16,5.5,16c1.4,0,2.8,0.7,3.6,1.8c-1.1,1.3-1.6,3-1.6,4.6v3C7.5,25.8,7.7,26,8,26
	c0.3,0,0.5-0.2,0.5-0.5v-3c0-3.6,2.9-6.5,6.5-6.5s6.5,2.9,6.5,6.5v3c0,0.3,0.2,0.5,0.5,0.5s0.5-0.2,0.5-0.5v-3
	c0-1.7-0.6-3.3-1.6-4.6c1.5-2,4.3-2.4,6.3-1c1.2,0.8,1.8,2.2,1.8,3.6v2c0,0.3,0.2,0.5,0.5,0.5s0.5-0.2,0.5-0.5v-2
	C30,17.5,27.5,15,24.5,15z"/>
<path d="M27.5,20c-0.3,0-0.5,0.2-0.5,0.5v2c0,0.3,0.2,0.5,0.5,0.5s0.5-0.2,0.5-0.5v-2C28,20.2,27.8,20,27.5,20z"/>
<path d="M5.5,14C7.4,14,9,12.4,9,10.5S7.4,7,5.5,7S2,8.6,2,10.5S3.6,14,5.5,14z M5.5,8C6.9,8,8,9.1,8,10.5S6.9,13,5.5,13
	S3,11.9,3,10.5S4.1,8,5.5,8z"/>
<path d="M2.5,20C2.2,20,2,20.2,2,20.5v2C2,22.8,2.2,23,2.5,23S3,22.8,3,22.5v-2C3,20.2,2.8,20,2.5,20z"/>
</svg>
